<svg height="512" viewBox="0 0 512 512" width="512" xmlns="http://www.w3.org/2000/svg"><g id="Flat"><circle cx="168" cy="344" fill="#8acce7" r="144"/><circle cx="344" cy="168" fill="#8acce7" r="144"/><path d="m272 344q0 4.03491-.3 8a103.38151 103.38151 0 0 1 -9.87988 36.92993 102.25556 102.25556 0 0 1 -8.02012 13.85007 104.23647 104.23647 0 0 1 -27.02 27.02 102.25718 102.25718 0 0 1 -13.85 8.02 103.38149 103.38149 0 0 1 -36.93 9.88q-3.96.29992-8 .3-4.035 0-8-.3a103.38149 103.38149 0 0 1 -36.93-9.87988 102.25718 102.25718 0 0 1 -13.85-8.02 104.23647 104.23647 0 0 1 -27.02-27.02012 102.25519 102.25519 0 0 1 -8.02-13.8501 103.3804 103.3804 0 0 1 -9.88-36.9299q-.3-3.96-.3-8 0-4.03491.3-8a103.37973 103.37973 0 0 1 9.88-36.92993 102.24786 102.24786 0 0 1 8.02-13.85007 104.23647 104.23647 0 0 1 27.02-27.02 102.25718 102.25718 0 0 1 13.85-8.02 103.38149 103.38149 0 0 1 36.93-9.87995q3.96-.30011 8-.3 4.035 0 8 .3a103.38149 103.38149 0 0 1 36.93 9.87988 102.25718 102.25718 0 0 1 13.85 8.02 104.23647 104.23647 0 0 1 27.02 27.02 102.24822 102.24822 0 0 1 8.02008 13.8501 103.38084 103.38084 0 0 1 9.87992 36.92997q.30005 3.96.3 8z" fill="#c4d4e0"/><g fill="#2f4054"><path d="m176 240.30005v23.69995h-16v-23.69995q3.96-.30011 8-.3 4.035-.00005 8 .3z"/><path d="m134.93 270.72-13.86 8-11.85-20.52a102.25718 102.25718 0 0 1 13.85-8.02z"/><path d="m102.72 297.07007-8 13.85986-20.54-11.85986a102.24786 102.24786 0 0 1 8.02-13.85007z"/><path d="m88 336v16h-23.7q-.3-3.96-.3-8 0-4.03491.3-8z"/><path d="m102.72 390.92993-20.52 11.85007a102.25519 102.25519 0 0 1 -8.02-13.8501l20.54-11.85986z"/><path d="m134.93 417.28-11.86 20.54a102.25718 102.25718 0 0 1 -13.85-8.02l11.85-20.52z"/><path d="m176 424v23.7q-3.96.29992-8 .3-4.035 0-8-.3v-23.7z"/><path d="m226.78 429.80005a102.25718 102.25718 0 0 1 -13.85 8.02l-11.86-20.54 13.86-8z"/><path d="m261.82007 388.92993a102.25556 102.25556 0 0 1 -8.02007 13.85007l-20.52-11.8501 8-13.85986z"/><path d="m272 344q0 4.03491-.3 8h-23.7v-16h23.7q.30005 3.96.3 8z"/><path d="m261.82007 299.07007-20.54 11.85986-8-13.85986 20.51993-11.85007a102.24822 102.24822 0 0 1 8.02007 13.85007z"/><path d="m226.78 258.2-11.85 20.52-13.86-8 11.86-20.54a102.25718 102.25718 0 0 1 13.85 8.02z"/></g><path d="m448 168q0 4.03491-.3 8a103.38151 103.38151 0 0 1 -9.87988 36.92993 102.26152 102.26152 0 0 1 -8.02 13.8501 104.2367 104.2367 0 0 1 -27.02 27.02 102.25419 102.25419 0 0 1 -13.8501 8.02 103.38084 103.38084 0 0 1 -36.93002 9.87997q-3.96.29992-8 .3-4.03491 0-8-.3a103.38084 103.38084 0 0 1 -36.92993-9.87988 102.25419 102.25419 0 0 1 -13.8501-8.02 104.2367 104.2367 0 0 1 -27.02-27.02 102.26115 102.26115 0 0 1 -8.02-13.8501 103.3804 103.3804 0 0 1 -9.87997-36.93002q-.3-3.96-.3-8 0-4.03491.3-8a103.37973 103.37973 0 0 1 9.88-36.92993 102.25382 102.25382 0 0 1 8.02-13.85007 104.2367 104.2367 0 0 1 27.02-27.02 102.25419 102.25419 0 0 1 13.8501-8.02 103.38084 103.38084 0 0 1 36.9299-9.87995q3.96-.3001 8-.3 4.03491 0 8 .3a103.38084 103.38084 0 0 1 36.92993 9.87988 102.25419 102.25419 0 0 1 13.85007 8.02007 104.2367 104.2367 0 0 1 27.02 27.02 102.25419 102.25419 0 0 1 8.02 13.8501 103.38084 103.38084 0 0 1 9.88 36.9299q.30006 3.96.3 8z" fill="#c4d4e0"/><path d="m352 64.30005v23.69995h-16v-23.69995q3.96-.3001 8-.3 4.03491-.00005 8 .3z" fill="#2f4054"/><path d="m310.92993 94.72-13.85986 8-11.85007-20.52a102.25419 102.25419 0 0 1 13.8501-8.02z" fill="#2f4054"/><path d="m278.72 121.07007-8 13.85986-20.54-11.85986a102.25382 102.25382 0 0 1 8.02-13.85007z" fill="#2f4054"/><path d="m264 160v16h-23.7q-.3-3.96-.3-8 0-4.03491.3-8z" fill="#2f4054"/><path d="m278.72 214.92993-20.52 11.85007a102.26115 102.26115 0 0 1 -8.02-13.8501l20.54-11.85986z" fill="#2f4054"/><path d="m310.92993 241.28-11.85986 20.54a102.25419 102.25419 0 0 1 -13.8501-8.02l11.8501-20.52z" fill="#2f4054"/><path d="m352 248v23.7q-3.96.29992-8 .3-4.03491 0-8-.3v-23.7z" fill="#2f4054"/><path d="m402.78 253.80005a102.25419 102.25419 0 0 1 -13.8501 8.02l-11.85986-20.54 13.85986-8z" fill="#2f4054"/><path d="m437.82007 212.92993a102.26152 102.26152 0 0 1 -8.02 13.8501l-20.52-11.8501 8-13.85986z" fill="#2f4054"/><path d="m448 168q0 4.03491-.3 8h-23.7v-16h23.7q.30006 3.96.3 8z" fill="#2f4054"/><path d="m437.82007 123.07007-20.54 11.85986-8-13.85986 20.52-11.8501a102.25419 102.25419 0 0 1 8.02 13.8501z" fill="#2f4054"/><path d="m402.78 82.2-11.8501 20.52-13.85986-8 11.85986-20.54a102.25419 102.25419 0 0 1 13.8501 8.02z" fill="#2f4054"/><path d="m141.657 381.657-11.314-11.314 29.657-29.656v-60.687h16v67.313z" fill="#e44042"/><circle cx="168" cy="344" fill="#2d80b3" r="16"/><path d="m317.657 205.657-11.314-11.314 29.657-29.656v-60.687h16v67.313z" fill="#e44042"/><circle cx="344" cy="168" fill="#2d80b3" r="16"/><path d="m344 272v40a145.37024 145.37024 0 0 1 -18.89-1.23 143.047 143.047 0 0 1 -17.04993-3.29 148.10677 148.10677 0 0 0 -26.94007-56.63 103.63157 103.63157 0 0 0 62.88 21.15z" fill="#8acce7"/><path d="m230.88 261.1499a103.63215 103.63215 0 0 0 -62.88-21.1499v-40a145.34843 145.34843 0 0 1 18.89 1.23 143.024 143.024 0 0 1 17.05 3.29 148.10531 148.10531 0 0 0 26.94 56.6299z" fill="#8acce7"/><path d="m203.94 204.52a148.10531 148.10531 0 0 0 26.94 56.62988 103.63262 103.63262 0 0 0 -28.7-15.3999 163.26915 163.26915 0 0 1 -13.82-37.57007q-.81-3.4499-1.47-6.95a143.024 143.024 0 0 1 17.05 3.29009z" fill="#379ec3"/><path d="m325.11 310.77a143.047 143.047 0 0 1 -17.04993-3.29 148.10677 148.10677 0 0 0 -26.94007-56.63 103.6293 103.6293 0 0 0 28.70007 15.4 163.26768 163.26768 0 0 1 13.81993 37.57007q.80989 3.44993 1.47 6.94993z" fill="#379ec3"/><path d="m312 341.41992v2.58008h-40v-2.17993a91.30773 91.30773 0 0 0 -26.75-64.57007l-1.82-1.82007a148.33049 148.33049 0 0 1 -43.43-104.84993v-2.58h40v2.17993a91.32233 91.32233 0 0 0 26.75 64.57007l1.82007 1.82007a148.32984 148.32984 0 0 1 43.42993 104.84985z" fill="#8acce7"/></g></svg>